<svg width="303.4956255369704" height="304.915625" viewBox="0 0 312.5 313.9621292528076"
    class="looka-1j8o68f">
    <defs id="SvgjsDefs2757">
        <linearGradient id="SvgjsLinearGradient2766">
            <stop id="SvgjsStop2767" stop-color="#905e26" offset="0"></stop>
            <stop id="SvgjsStop2768" stop-color="#f5ec9b" offset="0.5"></stop>
            <stop id="SvgjsStop2769" stop-color="#905e26" offset="1"></stop>
        </linearGradient>
    </defs>
    <g id="SvgjsG2758" featurekey="rootContainer"
        transform="matrix(2.9780613722028506,0,0,2.9780613722028506,0.07358542120676635,0.07445146330255518)"
        fill="url(#SvgjsLinearGradient2766)">
        <g xmlns="http://www.w3.org/2000/svg" fill-rule="evenodd">
            <path
                d="M.7 40.5zm103.2 63.2zm.8-83.7a1.7 1.7 0 0 1-.3-.7 10 10 0 0 1 .1-2.7 2.4 2.4 0 0 0 .1-1.4 2.3 2.3 0 0 1 .1-.7 6.6 6.6 0 0 0 .2-2v-2c0-.9-.2-1.2-.5-1.2h-.3c-.1 0-.2-.5-.1-.8s.3-1.4.7-1.3V6.1a1.2 1.2 0 0 0-.1-.7c-.1-.1-.1 0-.2.4v.4l-.2-.3-.2-.4h-.1v-4h-5l-.4-.2h-3.3V1c.1-.2-.3-.3-.7-.3s-1.7.1-1.9.5-.4.1-.3.3h-10L82 1l-.8-.4a3.3 3.3 0 0 0-1.6 0c-.2 0-.3.2-.2.3h.5c.3.1.3.1.1.3s-.1.2 0 .2h-4c0-.1-.1-.2-.3-.2a14 14 0 0 0-3.5-.1h-.4a1.7 1.7 0 0 1-1.3-.2.9.9 0 0 0-.7-.2h-3.9c-.4.3-.3.4.4.5h-6.1l-.8-.2c-.1 0-.2-.1-.1-.1h.1a6.1 6.1 0 0 1 2.4.1h-3.2l-.7.2a1.9 1.9 0 0 1-1.1.1 14.3 14.3 0 0 1-2.7-.4h-3.3l-1-.4h-1.3c.2.1.6.2.5.4s-.4.3-.8.2h-.5l-.2-.3h-1.3c.2.2-.3.4-.2.6h-.2a4.4 4.4 0 0 1-1.7-.3h-.3c-.3-.1-.3-.2-.2-.3s-.1-.2-.5-.2h-.6l-1 .4h.4c.6.1.6.2.2.4h-3.7c.3 0 .5-.1.3-.2s0-.2-.1-.4h-.5a4.4 4.4 0 0 1-1.7.3L35 .8h-1.8c0 .1.3.2.5.3s.6.1.5.3h-2.4c-.3-.1-.2-.2-.1-.3H31l-.2.2a1.2 1.2 0 0 1-.9.2l-1-.2-1-.3-1.2-.6h-2.9l-2.2.3A2.6 2.6 0 0 1 20 .6l-.4-.2a1.7 1.7 0 0 0-1.2-.2 3.8 3.8 0 0 1-1.5.1h-.7a2 2 0 0 1-1.2.1 4.5 4.5 0 0 0-1.6 0h-.9a1.6 1.6 0 0 0-1.3.2H8.5C8.1.1 7.7-.1 6.2 0h-.5v.6h-.2l-.7.3H1.2v.6A10.3 10.3 0 0 1 1 2.8l-.2.9a2.5 2.5 0 0 0 0 .8V5c-.2 0-.4.4-.4.9a3.6 3.6 0 0 0 0 1.5 3.7 3.7 0 0 1 0 1.8 1.6 1.6 0 0 0 0 .7 4.6 4.6 0 0 1 .2 1.3c0 .2.1.3.2.4a.9.9 0 0 1 0 .7v.4H.6c-.1-.2-.2-.2-.2 0a9.8 9.8 0 0 0-.1 1.9.9.9 0 0 0 .1.3c.2.1.2.8.4.9s.1 0 .1.2a4.1 4.1 0 0 1-.1 1.3v.1c-.1-.3-.1-.6-.2-.8H.2v.2a4.3 4.3 0 0 0 .1.5 2.7 2.7 0 0 1 .1.4 14.1 14.1 0 0 1 .1 2.9 3.8 3.8 0 0 0 .1 1.1 2.1 2.1 0 0 1-.1.9v.4a1.2 1.2 0 0 0 .1.8c.2.2.3.2.5.1s.2.4.2.7V26a.8.8 0 0 0 .2.7c.2.2.3.1.5-.1V28h-.3a4.5 4.5 0 0 1-.2 1.3 4 4 0 0 0-.4 1.9 2.1 2.1 0 0 1-.1.5c0 .2-.1.2-.2 0s-.3-.4-.5-.2a1.7 1.7 0 0 0-.1.5.8.8 0 0 0 0 .2 6.9 6.9 0 0 1 0 1.4v1.8a6.3 6.3 0 0 0 0 2.1c0 .4.1.5.3.5l.3-.2v.2a1.9 1.9 0 0 1 .2 1.3 5.5 5.5 0 0 0-.2 1.2c.1.1.2 0 .3-.1s.1-.3.2-.2.2.1.3-.3.1-.7.2-1v4.3h-.2c-.1 0-.2-.3-.2-.4s-.3-.1-.3.1a.6.6 0 0 1-.5.4H.3a1.6 1.6 0 0 0 0 .7v.4a1.7 1.7 0 0 1 .1.9v.7a1.3 1.3 0 0 0 .1.7c.2.4.3 1.3.5 1.6a1.3 1.3 0 0 1 .1.5 9.9 9.9 0 0 0 .1 1.4 4.3 4.3 0 0 1 0 .8v1.5a1.1 1.1 0 0 1-.2.5 4.5 4.5 0 0 1 0 .5v2.3c0 .1.1 0 .1-.1v-.6a1.5 1.5 0 0 1 0-.4h.1a.6.6 0 0 1 .1.3 5.5 5.5 0 0 0 0 1.7l.2.2v.1a1.7 1.7 0 0 1-.3.8.3.3 0 0 1 0 .3.3.3 0 0 1 0-.3v-1l-.4.8a6.7 6.7 0 0 0-.4-1.5 1.7 1.7 0 0 0-.1 1.2c.1.4.2.6.2 1a1.7 1.7 0 0 1 0 .5l-.2.5c.1.3.3.4.2 1a4.6 4.6 0 0 0 0 .6c0 .2.1.6.2.6s.3.1.4.5h.1c.1-.2.2 0 .3.1a2.9 2.9 0 0 1 0 .7 6 6 0 0 0 0 1.3h.1c.1-.7 0-1.4 0-2.1.1.1.2 0 .3-.2v4.6h-.4c-.2-.3-.2 0-.2.3a5.5 5.5 0 0 1-.2 1.3 3.6 3.6 0 0 1-.4.9 1.8 1.8 0 0 0-.1 1.2v.3a.4.4 0 0 1-.1.3c-.1.1-.2-.3-.3-.1a4.7 4.7 0 0 0-.2.8A3.3 3.3 0 0 0 .2 73c.1-.5.2-1.1.5-1.2l.3.6c.1.2.2.2.3-.2V72c.1.1.3.1.4 0v.8h-.1a4.6 4.6 0 0 0-.7 1.5c-.1.4-.2.4-.4.4a15 15 0 0 1 0 2.1 5.8 5.8 0 0 0 0 .8c0 .1.1.2.2.2v-1.4a.7.7 0 0 1 .1-.3c.2.2.4-.2.5-.4h.1v1.5l-.3.3v1.9a2 2 0 0 0 0 .4h.1c.1-.3 0-.9.3-.5v2.1a1.2 1.2 0 0 0-.2-.7H1c-.1 0-.1-.3-.1-.4a3.3 3.3 0 0 0 .1-.9V79c0-.1-.1 0-.1.1v.4c-.1.5-.1.5-.4.2s-.2-.1-.2 0a2.2 2.2 0 0 0-.2.6 10.6 10.6 0 0 0 .1 2.3 4.4 4.4 0 0 1 .1.8v3a3.2 3.2 0 0 0 0 .6l.2.3v-.2c0-.3.1-.6.1-.9s.1.4.2.4v-.7l.2.3c.4.6.4.9.1 1.8v-.2a.7.7 0 0 1 0-.2c0-.6-.1-.9-.3-1.1a16.1 16.1 0 0 0 .1 3.1l.4.5c.3.2.4.8.4 1.5a.7.7 0 0 1-.1.5v.2a3.6 3.6 0 0 1 0 1.5c0 .1 0 .4-.1.6v-2a2.9 2.9 0 0 1 0-.6v-.7a1 1 0 0 0 0-.4H1c-.1.2-.2.4-.3.4v.5-.5H.5a.7.7 0 0 0-.1.3V93a4.2 4.2 0 0 1 .1 1.1 1.5 1.5 0 0 1-.2.6 1.6 1.6 0 0 0-.1.5v1.3h.7v.2a1 1 0 0 1 0 .4l-.2.2H.5c-.1 0-.1.2-.1.4a4.6 4.6 0 0 0 .2 1.4 4.5 4.5 0 0 1 .1 1.3c0 .2 0 .2.1.2h.1c.1-.2.1-.8.3-.9a14.1 14.1 0 0 1 .1 3.9v.4h1.3l1.3-.2h.7l.5.4h.7c.3 0 .4-.1.5-.2s.3-.2.7-.2h.2a1.6 1.6 0 0 0 1.1-.2h2.2c0 .2 0 .3-.7.4s-.3.1-.1.1l.9.3h1c.3 0 .5.1.4.2a.3.3 0 0 0-.1.4h.3c.3-.2.4-.4 1.1-.5s.6-.4.8-.6c-.1-.1 0-.2.1-.3s.2-.1.2-.2h3l2.2.3v.2h-.1a3.8 3.8 0 0 1-1.5-.2 1.3 1.3 0 0 0-.9 0h.1c.2.2.1.2-.4.3h2.8c.6 0 .8 0 1.1.3h.7v.3c.1.1.2.2.5.2a2.2 2.2 0 0 0 1.3-.3l.4-.2c0-.1.1-.2.2-.3a1.1 1.1 0 0 1 .8-.2 1.1 1.1 0 0 1 .7.2c.4 0 .3.2.5.3l.6.3h.8c.1-.3.3-.5-.6-.7h.1a3.9 3.9 0 0 0 1.8-.4H28l-1.1.3h.1l-.4-.2-1.3-.2h4.9l.4.3c-.6.3-.6.3-.4.6s-.6.1-.7.2l-.4.3a2 2 0 0 0 1.5 0h4.1a2.1 2.1 0 0 1 1.4.2h.3c.7-.2.6-.6 1.1-.8l-.3-.4v-.1h2.3l.8-.2h1.2a2.1 2.1 0 0 0 1.3.5l.8-.2 1-.2h.1v-.2H46c.1.1.1.1-.1.2l-1.3.2c-.1 0-.1.1.1.1s.2.1.1.1h-.2c-.1.1-.2.2.1.3a1.6 1.6 0 0 0 .9.1h1.2l.3-.4h.7c.2 0 .3.1.3.2s.1.3.8.4 0-.2-.1-.3a.7.7 0 0 1-.2-.7v-.2h1.7l-.2.3.6-.3H52c-.2 0-.3.1-.2.2h.2a2.5 2.5 0 0 0 1.6 0h.1a1.8 1.8 0 0 1 1-.2c.2 0 .4-.1.3-.1l-.3-.2h5.6a.5.5 0 0 1 0 .1c-.2.1 0 .2.3.3h.8l-.3-.4h4.7l-.6.5-.6.2h-.3v-.1h.2c.1-.1-.1-.1-.3-.2h-.5c-.1 0-.1.1 0 .1s.3.3.2.4h.6c.7-.1 1.3-.2 1.5-.5l.4-.2.3-.2h2.8c0 .1.3.3.5.2h6c-.3 0-.3 0-.2.1s0 .1-.1.1h-1c.1.2.4.3.9.2h.2l-.3.2c-.4.2-.5.2-1.3.1l-.6.3h-.2a6.8 6.8 0 0 0 2.5.1l.4-.2c0-.1-.1-.1-.1-.2l.9-.5h2c0-.1-.1-.2-.6-.2a1.8 1.8 0 0 1-1-.2l-.3-.2h5.4c-.1.2.3.2.5.3l.8.3h.7c.3-.1.3-.1.7-.1h.3c.1-.2-.2-.3.1-.5h18.1v-.1a10.6 10.6 0 0 0 .1-1.1 27.9 27.9 0 0 1 .2-3.5l.2-2.7a3.7 3.7 0 0 0 0-.8c-.2-1-.1-2.1-.2-3.1a6.2 6.2 0 0 1 0-.8l.2-4.9a11.2 11.2 0 0 0 0-1.6 19.2 19.2 0 0 1 0-2.7c.1-1.7 0-3.4.1-5.1a1.7 1.7 0 0 0 0-.2 12.4 12.4 0 0 1 0-2.4 9.1 9.1 0 0 0 0-1.8 8.4 8.4 0 0 1 0-1.8 6.6 6.6 0 0 0 0-1.8 6.4 6.4 0 0 1 0-1.7c.2-1.5.2-3 .2-4.5a4.9 4.9 0 0 0 0-.6 30.8 30.8 0 0 1 0-4.5 11.3 11.3 0 0 0 0-1.2 7.1 7.1 0 0 1 0-1.4 9.9 9.9 0 0 0 0-2.3c0-.4-.1-.8-.1-1.2a6 6 0 0 1 .1-2.1 7.1 7.1 0 0 0 .1-1.3c0-.6.1-1.2.1-1.8a12.5 12.5 0 0 0-.4-3.9l.3-3.1v-.4c0-.1-.1-.5-.1-.4s-.4-.1-.6 0V37c.1.2.2.2.3.1a2.6 2.6 0 0 0 .3-1.1c0-.3-.1-.4-.2-.6a3.4 3.4 0 0 1-.1-.6 5.3 5.3 0 0 1 .1-1.5 8.3 8.3 0 0 0 .2-2.1 18.9 18.9 0 0 1 0-2c.1-1.1.1-2.1.1-3.2v-5a2.1 2.1 0 0 0 0-1zM.8 9.3a.9.9 0 0 1 0-.2c0-.2.1-.2.1 0a.4.4 0 0 1-.1.2zM1 22.1c0 .2-.1.3-.2.2a.8.8 0 0 1-.1-.5c0-.2.1-.3.2-.4s.2.1.1.3zm.4 48.5a.8.8 0 0 1 0-.5.8.8 0 0 1 .1.6zM1.1 96zm11.6 8.5zm12.4.1zm79.3-51.8zM71.2 1.5zm-52.9-.4h.3l.3.2h-1zm-2.5.3zM13.7.7h1.9a4.8 4.8 0 0 1-1.9.1h-.1c-.1 0-.1-.1.1-.1zm0 .5zm-8.4.4zM1.5 14.7a1.9 1.9 0 0 1 0-.4h.1v.2zm.2-2.9h-.1a.9.9 0 0 1 0-.3v.4zM1.4 48c-.1 0-.1-.2-.1-.4s.1-.3.1-.2v.6zm.2 3.3a1.1 1.1 0 0 1 0-.4c0-.1.1-.1.1-.1v.4zm0 23.5a.4.4 0 0 1 0-.3h.2v.5zM1 84l-.4.4A4.7 4.7 0 0 1 .5 83c.2-.3.3-.1.5.1a1.5 1.5 0 0 1 0 .9zm.2 1.2c0-.2 0-.4.1-.4h.4l-.4-1.6.4-1.5a1 1 0 0 0 0-.2v3.3c-.2 0-.2.5-.3.6s-.2.1-.2-.2zm.3 2.7c0-.4 0-.5.2-.6h.1v1.3c-.2-.1-.3-.2-.3-.7zm-.2 9.5v-1.3l.3-.5v.9l-.2.4a.7.7 0 0 0 0 .3h.2v.8c-.1.3-.3-.1-.3-.6zm1.2 6.4h-1v-3.1c0-.2.1-.3.1-.2h.1v3h.8zm20.9.2c.1.1 0 .2-.2.3h-.5c.2-.1.5-.2.5-.4zm7.9.4zm.6.5zm2.9-.4l-.3.2a1.2 1.2 0 0 1-.1.4h-.3l-.8-.2c-.1-.1.1-.2.4-.3h.1c-.7-.2-1-.4-.8-.7h1.4l.5.5c.1-.1.1-.1-.1 0zm2.7-.7zm66.4-70.2v-.9a1.8 1.8 0 0 1 0 .4zm.4-17.4a14 14 0 0 1-.4 1.7v-2.7l.4.6a1 1 0 0 1 0 .4zM.8 89.7zM1 53.1zm72.3 52.1zm10.7-.9zm4.6-.4h-.2a1.1 1.1 0 0 0-.5.7c-.1.2-.3.5 0 .8h.4c.7 0 .8-.1.7-.3l-.3-.3v-.2c0-.1.2-.2.5-.2h.7c-.3-.5-.4-.6-1.3-.5zm-.7 1.4zm1.8-1.1zm-37.7 0zm0 0z"></path>
            <path
                d="M90.4 1.4h.8l.7-.5a3.9 3.9 0 0 0-1.3-.3h-.5c-.1.3 0 .5.3.8zM74.3 104.1l-1.2-.3c-.3.2-.2.3-.6.5s-.2.2.2.3h.7a3 3 0 0 1 1.2-.4zm.4.1zm-1.2.5zm9.3.4zm-1.5-.4c.3.1.5.1.5.3a.2.2 0 0 0 0 .1c.1.2.4.3 1 .3s.4-.1.3-.1l-.2-.2c.1-.2-.2-.3-.4-.5h-1.4zm-23.6-1h-1.3c-.4.1-.4.2-.1.3s.9.2.9.5h.5c0-.2.2-.3.2-.5s.1-.2-.2-.3zm22.6 1zm-.6-1h.1c-.4.1-.4.2-.1.3h.7c.3.1 0 .2-.1.3s0 .1 0 .2l.7-.2a1 1 0 0 1 .7-.3s.1-.1 0-.1l-1-.2a2.1 2.1 0 0 1-.9-.2h-.1zm-63.6 1zm-1.8 0H14c-.1.1-.1.1.4.1h.2c.4.2 1.1.1 1.1-.1s.4-.3.3-.5h-1.7zm-6.9-.4l-.4.5h.2l1.3-.3v-.1H7.4zM.7 25c0-.2-.1-.2-.2-.1a2 2 0 0 0 0 1.5h.2V25zm45.7 80.2h-.5a.9.9 0 0 0 .7-.2zm-3.3 0h-.5s0 .1.1.1h.9c.1-.1 0-.2-.1-.2zm16.3-1h-.5c-.2.1-.3.2-.2.2l1 .2zm-57.7.5l-.7.2-.3-1.3-.2-.3c-.1 0-.1.1-.2.3l-.2 1.1 1.6.3h.5l.2-.3h-.7zm26.4-.1l-.3.2.3.2zm27.5-.1h-.3v.1l.2.2h.4c.1-.1.1-.2 0-.3zM1 50.6V53a15.9 15.9 0 0 0 0-2.4zm0 2.5zM91.2 105h.4l1-.2h-1.4zm2.6-.8zm-15.5.7h-.2l.7.2-.2-.4zM.6 73.9c0-.1-.1-.3-.2-.2a1.1 1.1 0 0 0-.1.7c0 .2 0 .4.1.4h.2a4 4 0 0 0 0-.9zm0 .9zM49.1 104h.1c0 .1.3.1.6.1s0-.1 0-.1h-.7zm13.7.7c-.1.1 0 .1.2.2h-.2zm34.8-.6h.4l.4-.2h-.8zm-6.4-.1c-.4 0-.5.1-.6.2h.7c.2 0 .1-.1-.1-.2zm-.5.2zM.6 55.5v-.3c0-.3-.1-.5-.2-.6s-.1.2-.1.3.2.7.3.6zM103.5 1.2zM50 103.9zm17.9.2h.2c.1-.1.1-.1-.1-.2h-1.6a4 4 0 0 1 1.5.2zm11.8 1.1l-.8.2h.8zM99.2 1.1h-.3c-.3 0-.3.2-.3.2h.6zM15.7 104.4zM.6 29.7c0 .2 0 .3.1.2h.1c0-.2 0-.3-.1-.2zm23.7 75.4c-.1 0 0 .1.1.1h-.1zm43.7.1zm20.1-1.3zm2.1.5h-.4zm-.5-.2zm-47.9.2h.5c.1-.1 0-.1-.1-.1zM.7 40.5zm0 .8v-.8a.8.8 0 0 0-.1.5zM.5 52.4a.8.8 0 0 0 0-.2v.3zM9.6 105h.1c.2 0 .2 0 0-.1zm31 .2zm24.7-.1h.4zm21.6.1l-.6-.2h-.1l.9.2h-.2zm17-102.6v-.3c0-.1-.1 0-.1.2s.1.2.1.1zM73.1 103.7zm18.8 0zm.6.6h.2-.2zm-42.8.1c-.1.1 0 .1.1.1h-.1s.1-.1 0-.1zm10.9 0h.2c.2-.1.1-.1-.1-.1zm36.1 0zM.8 52.9v-.3.3zm24.3 51.7zm13.6 0zm13.4.1zm32.3-.1c-.1 0-.2.1 0 .1zm-10.2.2zm0 0h-.7a.9.9 0 0 0 .7 0zm11.3.3h.8a.8.8 0 0 0-.8 0zM.2 40.4v.3h.1zm59.1 65h.1c-.1-.1-.2-.1-.1 0zm26.1-.3zm-.2.2c.2 0 .2-.1.2-.1h-.2zm7.4-.2h.2c.1 0 .1-.1 0-.1zM0 92.9zm103.8 12.4h.1-.1zm-47.3-1.6zm34.9.4zm-77.4.1v-.1h-.1l.1.1zm53.7-.1zm11.4.3zm-63 .3zm.3-.2zm0 0zm36.6.1c-.2 0-.2 0 0 0zm7.6 0zm-.9 0zm0 0zm20.6.1zm-.2 0zm-31 .2h-.2c-.1 0-.1.1.2 0zm-.3-.1zm-28.4.2c.1 0 .1 0 0 0zM.2 62.2v-.1.1zm0 36.3v.1-.1zm56 6.9v-.1h-.1l.1.1zm1.6-.1h-.1.1z"></path>
        </g>
    </g>
    <g id="SvgjsG2759" featurekey="symbolFeature-0"
        transform="matrix(1.0931387636628274,0,0,1.0931387636628274,101.80296459846528,63.10797386982023)"
        fill="#000000">
        <path xmlns="http://www.w3.org/2000/svg"
            d="M83.484,72.887l-0.717-4.756l-0.707-4.263l-2.525-3.21l-7.468-1.068l-3.626-0.46l-2.45-3.986l-5.915-7.155l-2.885-4.048  l-1.544-4.298l-0.301-4.773l-0.698-5.324l0.112-9.656l-0.585-3.81l-2.446-4.403l-3.618-2.472l-4.597-1.326l-2.783-0.594  l-2.582-1.895l-0.151,0.207l-0.134,0.038l0.03,0.105l-0.012,0.016l0.959,3.276l-2.377,2.988l-5.322,8.876l2.918,2.542l2.577-1.825  l4.236-1.793l3.386-1.039l-1.47,4.326l-7.505,4.145l-1.741,1.957l-3.115-2.663l-7.692-1.921l-2.928-0.449l-2.001,1.629l-1.689,2.637  l-1.301,4.229l4.894-2.686l-0.348-1.91l1.382-1.383l4.513,2.407l-3.108,7.015l3.302,6.642l1.772-4.908l-1.317-1.437l-0.659-1.251  l2.564-3.855l4.97,9.267l3.317,3.218l2.359,4.568l4.194,5.133l5.047,4.803l4.568,3.771l-0.349,3.857l0.227,3.444l1.533,4.231  c0.378,3.19,1.078,9.093,1.157,9.827c-0.322,0.363-1.122,1.479-3.52,4.83l-2.527,2.207l-2.701,4.151h10.328l-0.69-2.659l4.663-7.328  l0.906-3.832l-0.732-4.317l2.232-5.347l3.53-2.36l1.74-4.79l1.936-0.563l0.799,2.852l4.6,0.618l1.682,4.937l2.908,1.415l5.197,6.224  L83.484,72.887z"></path>
    </g>
    <g id="SvgjsG2760" featurekey="nameFeature-0"
        transform="matrix(0.9298173479831778,0,0,0.9298173479831778,54.88421980314023,180.84219182420185)"
        fill="#000000">
        <path
            d="M1.2 40 l0 -4.48 l0.84 -0.56 l0 -17.92 l-0.84 -0.56 l0 -4.48 l12.8 0 l3.72 3.72 l0 10.2 l-2.16 2.2 l1.72 6.68 l1 0.72 l0 4.48 l-6.88 0 l0 -4.48 l0.72 -0.48 l-1.4 -5.4 l-3.64 0 l0 5.32 l0.84 0.56 l0 4.48 l-6.72 0 z M7.08 24.6 l4.84 0 l0.76 -0.76 l0 -6.04 l-0.76 -0.76 l-4.84 0 l0 7.56 z M20.898 40 l0 -4.48 l0.84 -0.56 l0 -17.92 l-0.84 -0.56 l0 -4.48 l6.72 0 l0 4.48 l-0.84 0.56 l0 17.92 l0.84 0.56 l0 4.48 l-6.72 0 z M30.596 40 l0 -4.48 l0.84 -0.56 l0 -17.92 l-0.84 -0.56 l0 -4.48 l13.36 0 l3.72 3.72 l0 20.56 l-3.72 3.72 l-13.36 0 z M36.476 34.96 l5.4 0 l0.76 -0.76 l0 -16.4 l-0.76 -0.76 l-5.4 0 l0 17.92 z M50.654 40 l0 -4.48 l0.84 -0.56 l0 -17.92 l-0.84 -0.56 l0 -4.48 l14.56 0 l0 5.88 l-4.48 0 l-0.56 -0.84 l-3.64 0 l0 6.44 l6.44 0 l0 5.04 l-6.44 0 l0 6.44 l3.64 0 l0.56 -0.84 l4.48 0 l0 5.88 l-14.56 0 z M68.19200000000001 40 l0 -4.48 l0.84 -0.56 l0 -17.92 l-0.84 -0.56 l0 -4.48 l12.8 0 l3.72 3.72 l0 10.2 l-2.16 2.2 l1.72 6.68 l1 0.72 l0 4.48 l-6.88 0 l0 -4.48 l0.72 -0.48 l-1.4 -5.4 l-3.64 0 l0 5.32 l0.84 0.56 l0 4.48 l-6.72 0 z M74.072 24.6 l4.84 0 l0.76 -0.76 l0 -6.04 l-0.76 -0.76 l-4.84 0 l0 7.56 z M88.73 22.08 l-0.84 -5.6 l0 -4.48 l5.04 0 l0 4.48 l-0.84 5.6 l-3.36 0 z M99.628 40 l-3.72 -3.72 l0 -5.24 l5.04 0 l0 3.16 l0.76 0.76 l4.08 0 l0.76 -0.76 l0 -4.92 l-0.76 -0.76 l-6.16 0 l-3.72 -3.72 l0 -9.08 l3.72 -3.72 l8.24 0 l3.72 3.72 l0 5.24 l-5.04 0 l0 -3.16 l-0.76 -0.76 l-4.08 0 l-0.76 0.76 l0 4.92 l0.76 0.76 l6.16 0 l3.72 3.72 l0 9.08 l-3.72 3.72 l-8.24 0 z M122.34400000000001 40 l0 -4.48 l0.84 -0.56 l0 -17.92 l-0.84 -0.56 l0 -4.48 l12.8 0 l3.72 3.72 l0 10.2 l-2.16 2.2 l1.72 6.68 l1 0.72 l0 4.48 l-6.88 0 l0 -4.48 l0.72 -0.48 l-1.4 -5.4 l-3.64 0 l0 5.32 l0.84 0.56 l0 4.48 l-6.72 0 z M128.22400000000002 24.6 l4.84 0 l0.76 -0.76 l0 -6.04 l-0.76 -0.76 l-4.84 0 l0 7.56 z M142.042 40 l0 -4.48 l0.84 -0.56 l0 -17.92 l-0.84 -0.56 l0 -4.48 l14.56 0 l0 5.88 l-4.48 0 l-0.56 -0.84 l-3.64 0 l0 6.44 l6.44 0 l0 5.04 l-6.44 0 l0 6.44 l3.64 0 l0.56 -0.84 l4.48 0 l0 5.88 l-14.56 0 z M158.78000000000003 40 l0 -4.48 l0.84 -0.56 l3.64 -17.92 l-0.84 -0.56 l0 -4.48 l10.64 0 l0 4.48 l-0.84 0.56 l3.64 17.92 l0.84 0.56 l0 4.48 l-4.96 0 l-1.24 -6.16 l-5.52 0 l-1.24 6.16 l-4.96 0 z M166.02 28.8 l3.44 0 l-1.72 -8.56 z M178.87800000000001 40 l0 -4.48 l0.84 -0.56 l0 -17.92 l-0.84 -0.56 l0 -4.48 l6.72 0 l0 4.48 l-0.84 0.56 l0 17.92 l2.8 0 l0.56 -0.84 l4.48 0 l0 5.88 l-13.72 0 z M195.57600000000002 40 l0 -4.48 l0.84 -0.56 l0 -17.92 l-0.84 -0.56 l0 -4.48 l6.2 0 l4.16 10.6 l4.16 -10.6 l6.2 0 l0 4.48 l-0.84 0.56 l0 17.92 l0.84 0.56 l0 4.48 l-6.72 0 l0 -4.48 l0.84 -0.56 l0 -9.96 l-2.48 6.32 l-4 0 l-2.48 -6.32 l0 9.96 l0.84 0.56 l0 4.48 l-6.72 0 z"></path>
    </g>
    <g id="SvgjsG2761" featurekey="sloganFeature-0"
        transform="matrix(0.8182151778438513,0,0,0.8182151778438513,118.18178482215615,222.1743080273891)"
        fill="#000000">
        <path
            d="M1.26 20 c-0.14 0 -0.26 -0.12 -0.26 -0.26 l0 -11.98 c0 -0.14 0.12 -0.26 0.26 -0.26 l8.26 0 c0.08 0 0.14 0.02 0.18 0.08 c0.06 0.04 0.08 0.1 0.08 0.18 l-0.02 2.24 c0 0.14 -0.12 0.26 -0.26 0.26 l-5.4 0 l0 2.42 l3.4 0 c0.14 0 0.26 0.12 0.26 0.26 l0 2.26 c0 0.14 -0.12 0.26 -0.26 0.26 l-3.4 0 l0 4.28 c0 0.14 -0.1 0.26 -0.24 0.26 l-2.6 0 z M12.7455 20 c-0.16 0 -0.26 -0.12 -0.26 -0.26 l0 -11.98 c0 -0.14 0.1 -0.26 0.26 -0.26 l4.88 0 c1.52 0 2.72 0.38 3.56 1.16 c1.24 1.12 1.66 3.24 1.06 4.8 c-0.22 0.56 -0.6 1.08 -1.08 1.46 c-0.28 0.22 -0.58 0.38 -0.88 0.54 c0.86 1.36 2.16 4.12 2.16 4.12 c0.02 0.04 0.06 0.1 0.06 0.16 c0 0.14 -0.12 0.26 -0.26 0.26 l-2.96 0 c-0.08 0 -0.18 -0.06 -0.22 -0.14 l-1.74 -3.82 c-0.62 0.04 -1.1 0.02 -1.74 0.02 l0 3.68 c0 0.14 -0.12 0.26 -0.26 0.26 l-2.58 0 z M15.5855 13.280000000000001 c0 0 2.52 0.28 3.4 -0.3 c0.34 -0.22 0.54 -0.76 0.54 -1.16 c-0.02 -0.44 -0.24 -0.9 -0.6 -1.18 c-0.38 -0.32 -1.32 -0.42 -1.8 -0.42 l-1.54 0.04 l0 3.02 z M25.631 20 l0 -11.98 c0 -0.5 0.1 -0.6 0.26 -0.6 l8.76 0 c0.14 0 0.26 0.1 0.26 0.24 l0 2.26 c0 0.14 -0.12 0.26 -0.26 0.26 l-5.92 0 l0 2.08 l3.74 0 c0.14 0 0.26 0.12 0.26 0.26 l0 2.24 c0 0.14 -0.12 0.26 -0.26 0.26 l-3.74 0 l0 2.14 l5.9 0 c0.14 0 0.26 0.12 0.26 0.26 l0 2.24 c0 0.14 -0.12 0.26 -0.26 0.26 l-8.74 0 c-0.16 0 -0.26 -0.12 -0.26 0.08 z M38.0165 20 l0 -11.98 c0 -0.5 0.1 -0.6 0.26 -0.6 l8.76 0 c0.14 0 0.26 0.1 0.26 0.24 l0 2.26 c0 0.14 -0.12 0.26 -0.26 0.26 l-5.92 0 l0 2.08 l3.74 0 c0.14 0 0.26 0.12 0.26 0.26 l0 2.24 c0 0.14 -0.12 0.26 -0.26 0.26 l-3.74 0 l0 2.14 l5.9 0 c0.14 0 0.26 0.12 0.26 0.26 l0 2.24 c0 0.14 -0.12 0.26 -0.26 0.26 l-8.74 0 c-0.16 0 -0.26 -0.12 -0.26 0.08 z M50.662 20 c-0.16 0 -0.26 -0.12 -0.26 -0.26 l0 -11.98 c0 -0.14 0.1 -0.26 0.26 -0.26 l4.54 0 c1.2 0 2.3 0.26 3.26 0.8 c0.96 0.52 1.7 1.26 2.24 2.22 c0.52 0.94 0.8 2.02 0.8 3.22 c0 1.22 -0.28 2.3 -0.82 3.24 c-0.54 0.96 -1.3 1.7 -2.28 2.22 c-0.96 0.54 -2.08 0.8 -3.3 0.8 l-4.44 0 z M53.502 17.2 l1.76 0 c0.58 0 1.12 -0.14 1.58 -0.42 c0.46 -0.3 0.84 -0.7 1.1 -1.22 s0.4 -1.12 0.4 -1.8 c0 -0.66 -0.14 -1.28 -0.42 -1.8 c-0.28 -0.54 -0.66 -0.94 -1.14 -1.24 c-0.48 -0.28 -1.04 -0.44 -1.64 -0.44 l-1.64 0 l0 6.92 z M71.0475 20 c-1.2 0 -2.3 -0.28 -3.26 -0.84 c-0.98 -0.56 -1.76 -1.36 -2.34 -2.32 c-0.56 -0.98 -0.84 -2.1 -0.84 -3.3 c0 -1.18 0.28 -2.28 0.84 -3.26 c0.58 -0.98 1.34 -1.76 2.32 -2.32 s2.08 -0.84 3.28 -0.84 c1.18 0 2.28 0.28 3.26 0.84 s1.76 1.34 2.32 2.32 c0.58 0.98 0.86 2.08 0.86 3.26 c0 1.2 -0.28 2.3 -0.86 3.28 c-0.56 0.98 -1.34 1.76 -2.32 2.34 c-0.98 0.56 -2.08 0.84 -3.26 0.84 z M71.0875 17.12 c0.58 0 1.12 -0.16 1.6 -0.46 c0.5 -0.32 0.9 -0.74 1.18 -1.3 c0.3 -0.54 0.44 -1.16 0.44 -1.82 c0 -0.64 -0.14 -1.26 -0.44 -1.8 c-0.28 -0.54 -0.68 -0.96 -1.18 -1.28 c-0.48 -0.3 -1.02 -0.46 -1.6 -0.46 c-0.6 0 -1.14 0.16 -1.64 0.46 c-0.52 0.32 -0.92 0.74 -1.22 1.28 c-0.3 0.56 -0.44 1.16 -0.44 1.8 c0 0.66 0.14 1.28 0.44 1.82 c0.32 0.54 0.72 0.98 1.22 1.28 c0.5 0.32 1.04 0.48 1.64 0.48 z M80.653 20 c-0.14 0 -0.26 -0.12 -0.26 -0.26 l0 -11.98 c0 -0.14 0.12 -0.26 0.26 -0.26 l2.88 0 c0.1 0 0.2 0.06 0.24 0.14 l3 7.4 l2.98 -7.4 c0.04 -0.08 0.14 -0.14 0.24 -0.14 l2.88 0 c0.14 0 0.26 0.12 0.26 0.26 l0 11.98 c0 0.14 -0.12 0.26 -0.26 0.26 l-2.34 0 c-0.14 0 -0.26 -0.12 -0.26 -0.26 l0 -6.44 l-2.44 6.2 c-0.04 0.08 -0.14 0.14 -0.22 0.14 l-1.68 0 c-0.1 0 -0.2 -0.06 -0.24 -0.14 l-2.46 -6.2 l0 6.44 c0 0.14 -0.12 0.26 -0.26 0.26 l-2.32 0 z"></path>
    </g>
</svg>